<svg xmlns="http://www.w3.org/2000/svg" xmlns:xlink="http://www.w3.org/1999/xlink"><symbol id="icon_cancel" viewBox="0 0 490.4 490.4"><path d="M245.2 490.4c135.2 0 245.2-110 245.2-245.2S380.4 0 245.2 0 0 110 0 245.2s110 245.2 245.2 245.2zm0-465.9c121.7 0 220.7 99 220.7 220.7s-99 220.7-220.7 220.7-220.7-99-220.7-220.7 99-220.7 220.7-220.7z"/><path d="M180.3 310.1c2.4 2.4 5.5 3.6 8.7 3.6s6.3-1.2 8.7-3.6l47.6-47.6 47.6 47.6c2.4 2.4 5.5 3.6 8.7 3.6s6.3-1.2 8.7-3.6c4.8-4.8 4.8-12.5 0-17.3l-47.8-47.6 47.6-47.6c4.8-4.8 4.8-12.5 0-17.3s-12.5-4.8-17.3 0l-47.6 47.6-47.6-47.6c-4.8-4.8-12.5-4.8-17.3 0s-4.8 12.5 0 17.3l47.6 47.6-47.6 47.6c-4.8 4.8-4.8 12.5 0 17.3z"/></symbol><symbol id="icon_checked" viewBox="0 0 512 512"><path d="M449.716 239.842c-.543-7.535-7.082-13.191-14.628-12.661-7.536.543-13.204 7.092-12.662 14.628.337 4.655.506 9.431.506 14.191 0 109.061-88.726 197.787-197.786 197.787S27.36 365.06 27.36 256 116.086 58.214 225.147 58.214c43.191 0 84.21 13.668 118.62 39.525 6.041 4.538 14.615 3.321 19.154-2.718 4.54-6.04 3.323-14.616-2.717-19.154-39.189-29.447-85.891-45.012-135.058-45.012C101.001 30.854 0 131.855 0 256s101.001 225.145 225.147 225.145S450.292 380.146 450.292 256c0-5.414-.195-10.85-.576-16.158z"/><path d="M496.395 61.77c-20.808-20.807-54.666-20.807-75.474 0l-197.11 197.108-69.874-69.875c-20.808-20.807-54.666-20.807-75.474 0-20.808 20.808-20.808 54.666 0 75.474l120.341 120.341c6.895 6.895 15.951 10.342 25.007 10.342 9.057 0 18.113-3.447 25.008-10.342l247.576-247.576c20.806-20.807 20.806-54.663 0-75.472zm-19.346 56.127L229.472 365.475c-3.12 3.12-8.2 3.12-11.32 0L97.811 245.133c-10.141-10.141-10.141-26.64 0-36.781 5.07-5.072 11.729-7.606 18.39-7.606s13.321 2.535 18.39 7.606l71.882 71.882a24.365 24.365 0 0017.339 7.181c6.551 0 12.71-2.551 17.341-7.182L440.268 81.116c10.138-10.141 26.64-10.141 36.781 0 10.14 10.141 10.14 26.64 0 36.781z"/></symbol><symbol id="icon_geolocation" viewBox="0 0 54.757 54.757"><path d="M27.557 12c-3.859 0-7 3.141-7 7s3.141 7 7 7 7-3.141 7-7-3.141-7-7-7zm0 12c-2.757 0-5-2.243-5-5s2.243-5 5-5 5 2.243 5 5-2.243 5-5 5z"/><path d="M40.94 5.617A19.052 19.052 0 0027.38 0a19.05 19.05 0 00-13.56 5.617c-6.703 6.702-7.536 19.312-1.804 26.952L27.38 54.757 42.721 32.6c5.755-7.671 4.922-20.281-1.781-26.983zm.159 25.814L27.38 51.243 13.639 31.4C8.44 24.468 9.185 13.08 15.235 7.031 18.479 3.787 22.792 2 27.38 2s8.901 1.787 12.146 5.031c6.05 6.049 6.795 17.437 1.573 24.4z"/></symbol><symbol id="icon_phone" viewBox="0 0 482.6 482.6"><path d="M98.339 320.8c47.6 56.9 104.9 101.7 170.3 133.4 24.9 11.8 58.2 25.8 95.3 28.2 2.3.1 4.5.2 6.8.2 24.9 0 44.9-8.6 61.2-26.3.1-.1.3-.3.4-.5 5.8-7 12.4-13.3 19.3-20 4.7-4.5 9.5-9.2 14.1-14 21.3-22.2 21.3-50.4-.2-71.9l-60.1-60.1c-10.2-10.6-22.4-16.2-35.2-16.2-12.8 0-25.1 5.6-35.6 16.1l-35.8 35.8c-3.3-1.9-6.7-3.6-9.9-5.2-4-2-7.7-3.9-11-6-32.6-20.7-62.2-47.7-90.5-82.4-14.3-18.1-23.9-33.3-30.6-48.8 9.4-8.5 18.2-17.4 26.7-26.1 3-3.1 6.1-6.2 9.2-9.3 10.8-10.8 16.6-23.3 16.6-36s-5.7-25.2-16.6-36l-29.8-29.8c-3.5-3.5-6.8-6.9-10.2-10.4-6.6-6.8-13.5-13.8-20.3-20.1-10.3-10.1-22.4-15.4-35.2-15.4-12.7 0-24.9 5.3-35.6 15.5l-37.4 37.4c-13.6 13.6-21.3 30.1-22.9 49.2-1.9 23.9 2.5 49.3 13.9 80 17.5 47.5 43.9 91.6 83.1 138.7zm-72.6-216.6c1.2-13.3 6.3-24.4 15.9-34l37.2-37.2c5.8-5.6 12.2-8.5 18.4-8.5 6.1 0 12.3 2.9 18 8.7 6.7 6.2 13 12.7 19.8 19.6 3.4 3.5 6.9 7 10.4 10.6l29.8 29.8c6.2 6.2 9.4 12.5 9.4 18.7s-3.2 12.5-9.4 18.7c-3.1 3.1-6.2 6.3-9.3 9.4-9.3 9.4-18 18.3-27.6 26.8l-.5.5c-8.3 8.3-7 16.2-5 22.2.1.3.2.5.3.8 7.7 18.5 18.4 36.1 35.1 57.1 30 37 61.6 65.7 96.4 87.8 4.3 2.8 8.9 5 13.2 7.2 4 2 7.7 3.9 11 6 .4.2.7.4 1.1.6 3.3 1.7 6.5 2.5 9.7 2.5 8 0 13.2-5.1 14.9-6.8l37.4-37.4c5.8-5.8 12.1-8.9 18.3-8.9 7.6 0 13.8 4.7 17.7 8.9l60.3 60.2c12 12 11.9 25-.3 37.7-4.2 4.5-8.6 8.8-13.3 13.3-7 6.8-14.3 13.8-20.9 21.7-11.5 12.4-25.2 18.2-42.9 18.2-1.7 0-3.5-.1-5.2-.2-32.8-2.1-63.3-14.9-86.2-25.8-62.2-30.1-116.8-72.8-162.1-127-37.3-44.9-62.4-86.7-79-131.5-10.3-27.5-14.2-49.6-12.6-69.7z"/></symbol></svg>